<svg xmlns="http://www.w3.org/2000/svg" viewBox="0 0 841.9 595.3">
<g transform="translate(0.000000,512.000000) scale(0.100000,-0.100000)"
fill="#000000" stroke="none">
<path d="M2240 5105 c-389 -48 -766 -188 -1091 -404 -504 -335 -871 -825
-1043 -1395 -41 -132 -81 -333 -96 -468 -13 -125 -13 -431 0 -556 108 -1014
825 -1880 1804 -2176 132 -41 333 -81 468 -96 125 -13 431 -13 556 0 592 63
1141 332 1563 766 289 299 494 645 613 1038 74 243 106 468 106 746 0 209 -10
324 -46 505 -181 920 -867 1676 -1768 1949 -132 41 -333 81 -468 96 -131 14
-469 11 -598 -5z m404 -423 c8 -15 17 -47 21 -72 8 -54 -22 -646 -36 -709 -17
-76 -17 -76 -119 -79 -148 -5 -263 -30 -463 -102 -83 -29 -92 -31 -138 -20
-31 8 -62 24 -82 44 -18 17 -98 141 -177 275 -132 225 -144 249 -147 300 -6
90 20 125 136 182 173 85 393 153 591 183 142 21 158 23 287 24 l112 2 15 -28z
m-1367 -544 c33 -20 358 -429 399 -502 73 -131 6 -217 -123 -155 -56 27 -472
390 -500 437 -88 143 80 308 224 220z m1508 -707 c248 -66 468 -246 580 -476
71 -143 89 -224 89 -395 0 -118 -5 -160 -22 -225 -69 -251 -247 -468 -477
-580 -143 -70 -224 -89 -395 -89 -171 0 -252 19 -395 89 -361 177 -567 589
-487 975 74 360 344 633 702 711 112 25 290 20 405 -10z m752 -1803 c39 -17
89 -57 315 -255 166 -145 199 -179 213 -217 22 -58 14 -105 -26 -151 -66 -75
-162 -69 -241 13 -81 84 -361 436 -379 477 -23 50 -24 103 -2 127 19 21 78 24
120 6z m-301 -254 c24 -13 56 -46 77 -76 180 -272 288 -446 297 -476 13 -50
-4 -113 -43 -150 -40 -39 -195 -108 -361 -161 -204 -65 -424 -101 -624 -101
l-103 0 -19 43 c-24 52 -25 107 -5 455 22 392 20 386 156 390 117 4 276 34
378 72 42 15 88 30 102 33 41 8 102 -4 145 -29z"/>
<path d="M2477 2890 c-95 -24 -183 -98 -226 -190 -37 -79 -37 -201 0 -280 33
-70 99 -136 169 -169 79 -37 201 -37 280 0 70 33 136 99 169 169 37 79 37 201
0 280 -33 69 -99 136 -166 167 -59 27 -166 38 -226 23z"/>
</g>
    
</svg>


